g object1
o object1
v -1.91666667 8.00000000 -7.08333333
v -1.91666667 0.00000000 -3.08333333
v -1.91666667 0.50000000 -2.08333333
v -1.91666667 10.50000000 -2.08333333
v -1.91666667 10.50000000 -2.08333333
v -4.91666667 10.50000000 -2.08333333
v -4.91666667 10.50000000 4.16666667
v 5.08333333 10.50000000 4.16666667
v 5.08333333 10.50000000 -2.08333333
v 2.08333333 10.50000000 -2.08333333
v 0.08333333 10.50000000 0.00000000
v 2.08333333 8.00000000 -7.08333333
v 2.08333333 0.00000000 -3.08333333
v 2.08333333 0.50000000 -2.08333333
v 2.08333333 10.50000000 -2.08333333
v 2.08333333 0.00000000 -3.08333333
v -1.91666667 0.00000000 -3.08333333
v -1.91666667 8.00000000 -7.08333333
v 2.08333333 8.00000000 -7.08333333
v 2.08333333 0.50000000 -2.08333333
v -1.91666667 0.50000000 -2.08333333
v -1.91666667 0.00000000 -3.08333333
v 2.08333333 0.00000000 -3.08333333
v -1.91666667 0.00000000 -2.08333333
v -1.91666667 0.50000000 -2.08333333
v 2.08333333 0.50000000 -2.08333333
v 2.08333333 0.00000000 -2.08333333
v 2.08333333 0.00000000 6.91666667
v 2.08333333 0.00000000 -2.08333333
v 2.08333333 0.50000000 -2.08333333
v 2.08333333 5.00000000 6.91666667
v 2.08333333 0.00000000 -2.08333333
v -1.91666667 0.00000000 -2.08333333
v -1.91666667 0.00000000 6.91666667
v 2.08333333 0.00000000 6.91666667
v -1.91666667 0.00000000 6.91666667
v -1.91666667 0.00000000 -2.08333333
v -1.91666667 0.50000000 -2.08333333
v -1.91666667 5.00000000 6.91666667
v 2.08333333 0.00000000 6.91666667
v -1.91666667 0.00000000 6.91666667
v -1.91666667 5.00000000 6.91666667
v 2.08333333 5.00000000 6.91666667
v -4.91666667 0.50000000 -2.08333333
v -1.91666667 0.50000000 -2.08333333
v -1.91666667 5.00000000 6.91666667
v -3.41666667 5.00000000 6.91666667
v -4.91666667 5.00000000 6.91666667
v -3.41666667 3.20000000 3.31666667
v -3.41666667 5.00000000 6.91666667
v -1.91666667 5.00000000 6.91666667
v 2.08333333 5.00000000 6.91666667
v 3.58333333 5.00000000 6.91666667
v 3.58333333 5.00000000 2.91666667
v -3.41666667 5.00000000 2.91666667
v 0.08333333 5.00000000 5.58333333
v -4.91666667 5.00000000 6.91666667
v -3.41666667 5.00000000 6.91666667
v -1.91666667 8.00000000 5.41666667
v 2.08333333 8.00000000 5.41666667
v 3.58333333 5.00000000 6.91666667
v 5.08333333 5.00000000 6.91666667
v 5.08333333 10.50000000 4.16666667
v -4.91666667 10.50000000 4.16666667
v -4.91666667 0.50000000 -2.08333333
v -4.91666667 5.00000000 6.91666667
v -4.91666667 10.50000000 4.16666667
v -4.91666667 10.50000000 -2.08333333
v -4.91666667 10.50000000 -2.08333333
v -1.91666667 10.50000000 -2.08333333
v -1.91666667 0.50000000 -2.08333333
v -4.91666667 0.50000000 -2.08333333
v -1.91666667 8.00000000 2.91666667
v -1.91666667 8.00000000 5.41666667
v -3.41666667 5.00000000 6.91666667
v -3.41666667 5.00000000 2.91666667
v 2.08333333 8.00000000 2.91666667
v 2.08333333 8.00000000 5.41666667
v -1.91666667 8.00000000 5.41666667
v -1.91666667 8.00000000 2.91666667
v 3.58333333 5.00000000 2.91666667
v 3.58333333 5.00000000 6.91666667
v 2.08333333 8.00000000 5.41666667
v 2.08333333 8.00000000 2.91666667
v 3.58333333 5.00000000 6.91666667
v 2.08333333 5.00000000 6.91666667
v 2.08333333 0.50000000 -2.08333333
v 5.08333333 0.50000000 -2.08333333
v 5.08333333 5.00000000 6.91666667
v 3.58333333 3.20000000 3.31666667
v 5.08333333 0.50000000 -2.08333333
v 5.08333333 5.00000000 6.91666667
v 5.08333333 10.50000000 4.16666667
v 5.08333333 10.50000000 -2.08333333
v 5.08333333 0.50000000 -2.08333333
v 2.08333333 0.50000000 -2.08333333
v 2.08333333 10.50000000 -2.08333333
v 5.08333333 10.50000000 -2.08333333
v 2.08333333 8.00000000 2.91666667
v 3.58333333 5.00000000 2.91666667
v -3.41666667 5.00000000 2.91666667
v -1.91666667 8.00000000 2.91666667
v 2.08333333 8.00000000 -7.08333333
v -1.91666667 8.00000000 -7.08333333
v -1.91666667 10.50000000 -2.08333333
v 2.08333333 10.50000000 -2.08333333
vt 0.76190476 1.00000000
vt 0.00000000 0.20000000
vt 0.04761905 0.00000000
vt 1.00000000 0.00000000
vt 0.30000000 1.00000000
vt 0.00000000 1.00000000
vt 0.00000000 0.00000000
vt 1.00000000 0.00000000
vt 1.00000000 1.00000000
vt 0.70000000 1.00000000
vt 0.50000000 0.66666667
vt 0.76190476 1.00000000
vt 0.00000000 0.20000000
vt 0.04761905 0.00000000
vt 1.00000000 0.00000000
vt 1.00000000 1.00000000
vt 0.00000000 1.00000000
vt 0.00000000 0.00000000
vt 1.00000000 0.00000000
vt 1.00000000 1.00000000
vt 0.00000000 1.00000000
vt 0.00000000 0.00000000
vt 1.00000000 0.00000000
vt 0.00000000 1.00000000
vt 0.00000000 0.00000000
vt 1.00000000 0.00000000
vt 1.00000000 1.00000000
vt 0.00000000 1.00000000
vt 0.00000000 0.00000000
vt 0.10000000 0.00000000
vt 1.00000000 1.00000000
vt 1.00000000 1.00000000
vt 0.00000000 1.00000000
vt 0.00000000 0.00000000
vt 1.00000000 0.00000000
vt 0.00000000 1.00000000
vt 0.00000000 0.00000000
vt 0.10000000 0.00000000
vt 1.00000000 1.00000000
vt 1.00000000 1.00000000
vt 0.00000000 1.00000000
vt 0.00000000 0.00000000
vt 1.00000000 0.00000000
vt 0.00000000 0.00000000
vt 1.00000000 0.00000000
vt 1.00000000 1.00000000
vt 0.50000000 1.00000000
vt 0.00000000 1.00000000
vt 0.50000000 0.60000000
vt 0.00000000 1.00000000
vt 0.00000000 0.78571429
vt 0.00000000 0.21428571
vt 0.00000000 0.00000000
vt 1.00000000 0.00000000
vt 1.00000000 1.00000000
vt 0.33333333 0.50000000
vt 0.00000000 0.00000000
vt 0.15000000 0.00000000
vt 0.30000000 0.54545455
vt 0.70000000 0.54545455
vt 0.85000000 0.00000000
vt 1.00000000 0.00000000
vt 1.00000000 1.00000000
vt 0.00000000 1.00000000
vt 0.00000000 1.00000000
vt 0.45000000 0.00000000
vt 1.00000000 0.30555556
vt 1.00000000 1.00000000
vt 0.00000000 0.00000000
vt 1.00000000 0.00000000
vt 1.00000000 1.00000000
vt 0.00000000 1.00000000
vt 1.00000000 1.00000000
vt 0.37500000 1.00000000
vt 0.00000000 0.00000000
vt 1.00000000 0.00000000
vt 1.00000000 1.00000000
vt 0.00000000 1.00000000
vt 0.00000000 0.00000000
vt 1.00000000 0.00000000
vt 1.00000000 1.00000000
vt 0.00000000 1.00000000
vt 0.37500000 0.00000000
vt 1.00000000 0.00000000
vt 0.50000000 1.00000000
vt 0.00000000 1.00000000
vt 0.00000000 0.00000000
vt 1.00000000 0.00000000
vt 1.00000000 1.00000000
vt 0.50000000 0.60000000
vt 0.00000000 1.00000000
vt 0.45000000 0.00000000
vt 1.00000000 0.30555556
vt 1.00000000 1.00000000
vt 1.00000000 1.00000000
vt 0.00000000 1.00000000
vt 0.00000000 0.00000000
vt 1.00000000 0.00000000
vt 0.78571429 0.00000000
vt 1.00000000 1.00000000
vt 0.00000000 1.00000000
vt 0.21428571 0.00000000
vt 1.00000000 1.00000000
vt 0.00000000 1.00000000
vt 0.00000000 0.00000000
vt 1.00000000 0.00000000
vn -1.00000000 0.00000000 -0.00000000
vn -1.00000000 0.00000000 -0.00000000
vn -1.00000000 0.00000000 -0.00000000
vn -1.00000000 0.00000000 -0.00000000
vn -0.00000000 1.00000000 0.00000000
vn -0.00000000 1.00000000 0.00000000
vn -0.00000000 1.00000000 0.00000000
vn -0.00000000 1.00000000 0.00000000
vn -0.00000000 1.00000000 0.00000000
vn -0.00000000 1.00000000 0.00000000
vn -0.00000000 1.00000000 0.00000000
vn 1.00000000 0.00000000 0.00000000
vn 1.00000000 -0.00000000 0.00000000
vn 1.00000000 0.00000000 0.00000000
vn 1.00000000 0.00000000 0.00000000
vn 0.00000000 -0.44721360 -0.89442719
vn 0.00000000 -0.44721360 -0.89442719
vn 0.00000000 -0.44721360 -0.89442719
vn 0.00000000 -0.44721360 -0.89442719
vn -0.00000000 -0.89442719 0.44721360
vn -0.00000000 -0.89442719 0.44721360
vn -0.00000000 -0.89442719 0.44721360
vn -0.00000000 -0.89442719 0.44721360
vn 0.00000000 0.00000000 -1.00000000
vn 0.00000000 0.00000000 -1.00000000
vn 0.00000000 0.00000000 -1.00000000
vn 0.00000000 0.00000000 -1.00000000
vn 1.00000000 0.00000000 0.00000000
vn 1.00000000 0.00000000 0.00000000
vn 1.00000000 0.00000000 0.00000000
vn 1.00000000 0.00000000 0.00000000
vn 0.00000000 -1.00000000 -0.00000000
vn 0.00000000 -1.00000000 -0.00000000
vn 0.00000000 -1.00000000 -0.00000000
vn 0.00000000 -1.00000000 -0.00000000
vn -1.00000000 0.00000000 -0.00000000
vn -1.00000000 0.00000000 -0.00000000
vn -1.00000000 0.00000000 -0.00000000
vn -1.00000000 0.00000000 -0.00000000
vn 0.00000000 0.00000000 1.00000000
vn 0.00000000 0.00000000 1.00000000
vn 0.00000000 0.00000000 1.00000000
vn 0.00000000 0.00000000 1.00000000
vn 0.00000000 -0.89442719 0.44721360
vn 0.00000000 -0.89442719 0.44721360
vn 0.00000000 -0.89442719 0.44721360
vn 0.00000000 -0.89442719 0.44721360
vn 0.00000000 -0.89442719 0.44721360
vn -0.00000000 -0.89442719 0.44721360
vn 0.00000000 1.00000000 0.00000000
vn 0.00000000 1.00000000 0.00000000
vn 0.00000000 1.00000000 0.00000000
vn 0.00000000 1.00000000 0.00000000
vn 0.00000000 1.00000000 0.00000000
vn 0.00000000 1.00000000 0.00000000
vn 0.00000000 1.00000000 0.00000000
vn -0.00000000 0.44721360 0.89442719
vn -0.00000000 0.44721360 0.89442719
vn -0.00000000 0.44721360 0.89442719
vn -0.00000000 0.44721360 0.89442719
vn -0.00000000 0.44721360 0.89442719
vn -0.00000000 0.44721360 0.89442719
vn -0.00000000 0.44721360 0.89442719
vn -0.00000000 0.44721360 0.89442719
vn -1.00000000 0.00000000 -0.00000000
vn -1.00000000 0.00000000 -0.00000000
vn -1.00000000 -0.00000000 -0.00000000
vn -1.00000000 0.00000000 -0.00000000
vn 0.00000000 -0.00000000 -1.00000000
vn 0.00000000 -0.00000000 -1.00000000
vn 0.00000000 -0.00000000 -1.00000000
vn 0.00000000 -0.00000000 -1.00000000
vn 0.89442719 -0.44721360 0.00000000
vn 0.89442719 -0.44721360 0.00000000
vn 0.89442719 -0.44721360 0.00000000
vn 0.89442719 -0.44721360 0.00000000
vn 0.00000000 -1.00000000 0.00000000
vn 0.00000000 -1.00000000 0.00000000
vn 0.00000000 -1.00000000 0.00000000
vn 0.00000000 -1.00000000 0.00000000
vn -0.89442719 -0.44721360 -0.00000000
vn -0.89442719 -0.44721360 -0.00000000
vn -0.89442719 -0.44721360 -0.00000000
vn -0.89442719 -0.44721360 -0.00000000
vn -0.00000000 -0.89442719 0.44721360
vn -0.00000000 -0.89442719 0.44721360
vn -0.00000000 -0.89442719 0.44721360
vn -0.00000000 -0.89442719 0.44721360
vn -0.00000000 -0.89442719 0.44721360
vn -0.00000000 -0.89442719 0.44721360
vn 1.00000000 0.00000000 0.00000000
vn 1.00000000 0.00000000 0.00000000
vn 1.00000000 -0.00000000 0.00000000
vn 1.00000000 0.00000000 0.00000000
vn 0.00000000 -0.00000000 -1.00000000
vn 0.00000000 -0.00000000 -1.00000000
vn 0.00000000 -0.00000000 -1.00000000
vn 0.00000000 -0.00000000 -1.00000000
vn -0.00000000 0.00000000 1.00000000
vn -0.00000000 0.00000000 1.00000000
vn -0.00000000 0.00000000 1.00000000
vn -0.00000000 0.00000000 1.00000000
vn 0.00000000 0.89442719 -0.44721360
vn 0.00000000 0.89442719 -0.44721360
vn 0.00000000 0.89442719 -0.44721360
vn 0.00000000 0.89442719 -0.44721360
s 1
f 3/3/3 4/4/4 1/1/1
f 1/1/1 2/2/2 3/3/3
s 2
f 5/5/5 6/6/6 11/11/11
f 9/9/9 10/10/10 11/11/11
f 8/8/8 9/9/9 11/11/11
f 7/7/7 8/8/8 11/11/11
f 6/6/6 7/7/7 11/11/11
f 10/10/10 5/5/5 11/11/11
s 3
f 12/12/12 15/15/15 14/14/14
f 14/14/14 13/13/13 12/12/12
s 4
f 16/16/16 17/17/17 19/19/19
f 17/17/17 18/18/18 19/19/19
s 5
f 20/20/20 21/21/21 23/23/23
f 21/21/21 22/22/22 23/23/23
s 6
f 24/24/24 25/25/25 26/26/26
f 24/24/24 26/26/26 27/27/27
s 7
f 28/28/28 29/29/29 30/30/30
f 28/28/28 30/30/30 31/31/31
s 8
f 35/35/35 34/34/34 32/32/32
f 34/34/34 33/33/33 32/32/32
s 9
f 39/39/39 38/38/38 36/36/36
f 38/38/38 37/37/37 36/36/36
s 10
f 43/43/43 42/42/42 40/40/40
f 42/42/42 41/41/41 40/40/40
s 11
f 44/44/44 45/45/45 49/49/49
f 47/47/47 48/48/48 49/49/49
f 46/46/46 47/47/47 49/49/49
f 45/45/45 46/46/46 49/49/49
f 48/48/48 44/44/44 49/49/49
s 12
f 50/50/50 51/51/51 56/56/56
f 54/54/54 55/55/55 56/56/56
f 53/53/53 54/54/54 56/56/56
f 52/52/52 53/53/53 56/56/56
f 51/51/51 52/52/52 56/56/56
f 55/55/55 50/50/50 56/56/56
s 13
f 60/60/60 61/61/61 62/62/62
f 59/59/59 60/60/60 63/63/63
f 59/59/59 63/63/63 64/64/64
f 64/64/64 57/57/57 59/59/59
f 57/57/57 58/58/58 59/59/59
f 60/60/60 62/62/62 63/63/63
s 14
f 66/66/66 67/67/67 68/68/68
f 65/65/65 66/66/66 68/68/68
s 15
f 69/69/69 70/70/70 71/71/71
f 69/69/69 71/71/71 72/72/72
s 16
f 73/73/73 74/74/74 76/76/76
f 74/74/74 75/75/75 76/76/76
s 17
f 77/77/77 78/78/78 80/80/80
f 78/78/78 79/79/79 80/80/80
s 18
f 81/81/81 82/82/82 83/83/83
f 81/81/81 83/83/83 84/84/84
s 19
f 85/85/85 86/86/86 90/90/90
f 88/88/88 89/89/89 90/90/90
f 87/87/87 88/88/88 90/90/90
f 86/86/86 87/87/87 90/90/90
f 89/89/89 85/85/85 90/90/90
s 20
f 94/94/94 93/93/93 92/92/92
f 94/94/94 92/92/92 91/91/91
s 21
f 95/95/95 96/96/96 97/97/97
f 95/95/95 97/97/97 98/98/98
s 22
f 102/102/102 101/101/101 99/99/99
f 101/101/101 100/100/100 99/99/99
s 23
f 103/103/103 104/104/104 106/106/106
f 104/104/104 105/105/105 106/106/106
